<svg id="Capa_1" enable-background="new 0 0 24 27" width="24" height="27" viewBox="0 0 512 512"  xmlns="http://www.w3.org/2000/svg"><g><g><path d="m157.956 137.667v-52.667c0-30.327 24.673-55 55-55s55 24.673 55 55v52.667h30v-52.667c0-46.869-38.131-85-85.001-85-46.869 0-84.999 38.131-84.999 85v52.667z" fill="#fdcb02"/><g><path d="m395.766 499.685-20.306-377.667h-62.584l-10.001 183.085 10.001 197.896z" fill="#2d2d2d"/><g><path d="m48.104 122.018-10.252 190.675 105.775-79.693 84.901-110.982z" fill="#2d2d2d"/><path d="m228.528 122.018-190.676 190.675-10.716 199.307h113.752l171.988-9.001v-380.981z" fill="#464646"/></g></g></g><g><g><path d="m312.876 220.004c22.765 0 41.286 18.521 41.286 41.287v34.376h30v-34.376c0-39.308-31.979-71.287-71.287-71.287l-10.001 15.663z" fill="#828282"/><path d="m241.589 261.291v34.376h30v-34.376c0-22.765 18.521-41.287 41.287-41.287v-30c-39.308 0-71.287 31.979-71.287 71.287z" fill="#aaa"/></g><g><path d="m484.864 512-5.885-100.091-10.883-14.999 9.119-14.999-5.886-100.093h-158.453l-10.001 109.182 10.001 121z" fill="#fdae02"/><path d="m140.888 512h171.988v-230.182h-158.453l-5.886 100.091 9.119 15-10.883 15z" fill="#fdcb02"/></g><g><path d="m360.471 381.909c-6.383-20.21-25.304-34.903-47.596-34.903l-10.001 53.327 10.001 46.479c22.292 0 41.212-14.693 47.596-34.902h118.507l-1.764-30h-116.743z" fill="#f7f0eb"/><path d="m312.876 446.811v-46.479-53.327c-22.292 0-41.212 14.694-47.596 34.903h-116.743l-1.764 30h118.507c6.383 20.21 25.304 34.903 47.596 34.903z" fill="#fffbf5"/></g></g></g></svg>
